<svg width="112" height="33" viewBox="0 0 112 33" fill="none" xmlns="http://www.w3.org/2000/svg">
<g clip-path="url(#clip0_136_2969)">
<rect width="112" height="32.06"/>
<path d="M39.398 11.6313C39.2858 11.8117 39.1512 11.9471 39.039 12.0148C38.9043 12.0824 38.7472 12.1276 38.5452 12.1276C38.3432 12.1276 38.1188 12.0599 37.8719 11.9471C37.6251 11.8343 37.3558 11.6989 37.0416 11.5636C36.7274 11.4282 36.3683 11.2929 35.9643 11.1801C35.5604 11.0673 35.0891 10.9996 34.5504 10.9996C33.6976 10.9996 33.0243 11.1801 32.553 11.541C32.0593 11.902 31.8124 12.3757 31.8124 12.9622C31.8124 13.3457 31.9471 13.6615 32.194 13.9322C32.4408 14.2029 32.7775 14.4285 33.1814 14.6315C33.5854 14.8346 34.0567 15.015 34.5953 15.1729C35.1115 15.3308 35.6501 15.5113 36.1887 15.6918C36.7274 15.8722 37.266 16.0978 37.7822 16.3234C38.2984 16.5716 38.7696 16.8648 39.1961 17.2257C39.6 17.5867 39.9367 18.0379 40.1835 18.5567C40.4304 19.0755 40.5651 19.6846 40.5651 20.4065C40.5651 21.2637 40.408 22.0758 40.0938 22.7977C39.7796 23.5195 39.3307 24.1512 38.7248 24.6926C38.1188 25.234 37.3782 25.64 36.4805 25.9333C35.5828 26.2266 34.5729 26.3845 33.4283 26.3845C32.8223 26.3845 32.2164 26.3393 31.6329 26.2266C31.0494 26.1138 30.4883 25.9559 29.9497 25.7528C29.4111 25.5498 28.9173 25.3242 28.446 25.0535C27.9972 24.7828 27.5932 24.4896 27.2341 24.1737L28.2216 22.527C28.3563 22.3239 28.4909 22.166 28.6705 22.0758C28.85 21.9856 29.0744 21.9179 29.3437 21.9179C29.6131 21.9179 29.8599 21.9856 30.1068 22.1435C30.3537 22.3014 30.623 22.4593 30.9372 22.6398C31.2514 22.8202 31.6104 22.9781 32.0369 23.1361C32.4633 23.294 33.0019 23.3616 33.6527 23.3616C34.1689 23.3616 34.5953 23.294 34.9768 23.1812C35.3584 23.0684 35.6501 22.8879 35.8745 22.7074C36.1214 22.5044 36.2785 22.2788 36.3907 22.0081C36.5029 21.7374 36.5478 21.4667 36.5478 21.196C36.5478 20.7674 36.4132 20.429 36.1663 20.1583C35.9194 19.8876 35.5828 19.6621 35.1788 19.459C34.7749 19.256 34.3036 19.0755 33.7649 18.9176C33.2263 18.7597 32.6877 18.5793 32.1491 18.3988C31.588 18.2183 31.0494 17.9927 30.5332 17.7446C29.9946 17.4965 29.5233 17.1806 29.1193 16.7971C28.7153 16.4136 28.3787 15.9399 28.1318 15.376C27.885 14.812 27.7503 14.1352 27.7503 13.3457C27.7503 12.6013 27.885 11.902 28.1767 11.2478C28.4685 10.571 28.8949 10.0071 29.456 9.51078C30.017 9.01449 30.7127 8.60844 31.5656 8.31518C32.4184 8.02192 33.3834 7.86401 34.4831 7.86401C35.7174 7.86401 36.8396 8.06704 37.8495 8.47309C38.8594 8.87914 39.7122 9.42054 40.3855 10.0747L39.398 11.6313Z" fill="#283C8B"/>
<path d="M46.9836 0.0812988V14.9924H47.7916C48.0833 14.9924 48.3078 14.9473 48.4649 14.8796C48.622 14.7894 48.8015 14.654 48.981 14.4284L53.4247 8.90163C53.6267 8.67605 53.8287 8.47302 54.0531 8.36023C54.2775 8.22488 54.5693 8.1572 54.9283 8.1572H58.8558L53.3125 14.8119C53.1105 15.0601 52.9085 15.2857 52.7065 15.4887C52.5045 15.6917 52.2801 15.8722 52.0332 16.0301C52.2801 16.2106 52.4821 16.4136 52.6841 16.6392C52.8636 16.8647 53.0656 17.1129 53.2451 17.3836L59.2149 26.1137H55.3323C54.9957 26.1137 54.7039 26.046 54.4795 25.9332C54.2551 25.8204 54.0306 25.6174 53.8511 25.3467L49.2952 18.5341C49.1157 18.2634 48.9362 18.0829 48.7791 18.0152C48.5995 17.925 48.3526 17.9024 47.9936 17.9024H47.0285V26.1362H42.7195V0.0812988H46.9836Z" fill="#283C8B"/>
<path d="M66.8005 31.0541C66.6658 31.3474 66.5087 31.5955 66.3067 31.7534C66.1048 31.9113 65.7906 31.979 65.3642 31.979H62.1549L65.4988 24.7829L58.2723 8.13477H62.0426C62.4017 8.13477 62.6486 8.225 62.8506 8.38291C63.0301 8.54082 63.1648 8.74384 63.277 8.94687L67.0922 18.2635C67.2269 18.5567 67.3391 18.8726 67.4289 19.2109C67.5186 19.5493 67.6084 19.8651 67.6757 20.181C67.7655 19.8426 67.8777 19.5042 67.9899 19.2109C68.1022 18.8951 68.2144 18.5793 68.349 18.2409L71.9398 8.94687C72.0296 8.72128 72.1867 8.51826 72.4111 8.36035C72.6356 8.20244 72.86 8.13477 73.1293 8.13477H76.5855L66.8005 31.0541Z" fill="#283C8B"/>
<path d="M89.6695 26.1137C89.1085 26.1137 88.7494 25.843 88.5699 25.3241L88.2108 23.5871C87.8292 24.0158 87.4477 24.3767 87.0438 24.7151C86.6398 25.0534 86.1909 25.3467 85.7196 25.5948C85.2483 25.843 84.7546 26.0235 84.1935 26.1588C83.6549 26.2942 83.0714 26.3618 82.443 26.3618C81.478 26.3618 80.5803 26.1588 79.7499 25.7528C78.942 25.3467 78.2462 24.7602 77.6403 23.9706C77.0568 23.2037 76.6079 22.2336 76.2713 21.0832C75.9571 19.9327 75.8 18.6243 75.8 17.158C75.8 15.8271 75.9795 14.5863 76.3386 13.4359C76.6977 12.2854 77.2139 11.2928 77.8872 10.4582C78.5604 9.6235 79.3684 8.96931 80.311 8.49558C81.2536 8.02185 82.3084 7.79627 83.4754 7.79627C84.4853 7.79627 85.3381 7.95418 86.0338 8.27C86.752 8.58581 87.3804 9.01442 87.9415 9.55583V0.0812988H92.2504V26.1137H89.6695ZM83.9242 22.933C84.8219 22.933 85.585 22.7525 86.2134 22.369C86.8418 21.9855 87.4253 21.4667 87.9863 20.7673V12.714C87.4926 12.1275 86.9764 11.6989 86.3929 11.4507C85.8094 11.2026 85.2035 11.0898 84.5302 11.0898C83.8569 11.0898 83.2958 11.2026 82.7572 11.4507C82.2186 11.6989 81.7922 12.0598 81.4106 12.5561C81.0516 13.0524 80.7598 13.684 80.5578 14.451C80.3558 15.218 80.2661 16.1203 80.2661 17.158C80.2661 18.1957 80.3558 19.098 80.5129 19.8199C80.6925 20.5418 80.9169 21.1508 81.2311 21.602C81.5453 22.0532 81.9268 22.3916 82.3757 22.5946C82.8694 22.8427 83.3632 22.933 83.9242 22.933Z" fill="#13744E"/>
<path d="M103.18 7.86401C104.527 7.86401 105.716 8.0896 106.816 8.51821C107.893 8.94682 108.836 9.55589 109.599 10.368C110.362 11.1575 110.968 12.1276 111.372 13.278C111.798 14.4285 112 15.6918 112 17.113C112 18.5341 111.798 19.82 111.372 20.9704C110.945 22.1209 110.362 23.0909 109.599 23.903C108.836 24.7151 107.915 25.3242 106.816 25.7528C105.738 26.1814 104.527 26.407 103.18 26.407C101.833 26.407 100.622 26.1814 99.5443 25.7528C98.4446 25.3242 97.5245 24.6926 96.739 23.903C95.9759 23.0909 95.37 22.1209 94.9436 20.9704C94.5172 19.82 94.3152 18.5341 94.3152 17.113C94.3152 15.6918 94.5172 14.4285 94.9436 13.278C95.37 12.1276 95.9759 11.1575 96.739 10.368C97.502 9.57845 98.4446 8.96937 99.5443 8.51821C100.644 8.06704 101.856 7.86401 103.18 7.86401ZM103.18 23.0458C104.661 23.0458 105.761 22.5495 106.479 21.5344C107.197 20.5193 107.556 19.053 107.556 17.113C107.556 15.1729 107.197 13.7066 106.479 12.6915C105.761 11.6764 104.661 11.1575 103.18 11.1575C101.699 11.1575 100.554 11.6764 99.8361 12.6915C99.1179 13.7066 98.7588 15.1955 98.7588 17.113C98.7588 19.0304 99.1179 20.5193 99.8361 21.5118C100.554 22.527 101.676 23.0458 103.18 23.0458Z" fill="#13744E"/>
<path d="M20.7032 19.4138L14.6213 16.03L7.5294 12.1274C7.05811 11.8793 7.01322 11.2025 7.43963 10.8867L21.3765 0.645217C21.7132 0.397074 21.399 -0.144327 21.0174 0.0361398L0.886379 10.0746C-0.168425 10.5935 -0.190867 12.0823 0.819052 12.6463L6.90101 16.03L13.9929 19.9326C14.4642 20.1808 14.5091 20.8575 14.0827 21.1734L0.168215 31.4149C-0.168425 31.663 0.145772 32.2044 0.527297 32.0239L20.6359 22.008C21.6907 21.4666 21.7132 19.9778 20.7032 19.4138Z" fill="#283C8B"/>
<path d="M0.729337 26.7226L8.96579 21.4665C9.19021 21.3312 9.16777 20.9928 8.9209 20.88L0.482467 16.7969C0.145828 16.639 -0.168369 17.0676 0.100942 17.3383L3.93863 21.1056C4.07329 21.2184 4.07329 21.4214 3.96108 21.5567L0.280484 26.2263C0.0560572 26.5196 0.415139 26.9256 0.729337 26.7226Z" fill="#13744E"/>
<path d="M20.7931 5.65311L12.5566 10.9092C12.3322 11.0446 12.3546 11.3829 12.6015 11.4957L21.0399 15.5788C21.3766 15.7367 21.6908 15.3081 21.4215 15.0374L17.5838 11.2702C17.4491 11.1574 17.4491 10.9543 17.5613 10.819L21.2419 6.1494C21.4888 5.85614 21.1297 5.45008 20.7931 5.65311Z" fill="#13744E"/>
</g>
<defs>
<clipPath id="clip0_136_2969">
    <rect width="112" height="32.06"/>
</clipPath>
</defs>
</svg>
